<?xml version="1.0" encoding="UTF-8" standalone="no"?>
<!-- Created with Inkscape (http://www.inkscape.org/) -->

<svg
   version="1.1"
   id="svg1"
   width="491.51999"
   height="372.42667"
   viewBox="0 0 491.51999 372.42667"
   sodipodi:docname="Electronic_Devices_(2).eps"
   xmlns:inkscape="http://www.inkscape.org/namespaces/inkscape"
   xmlns:sodipodi="http://sodipodi.sourceforge.net/DTD/sodipodi-0.dtd"
   xmlns="http://www.w3.org/2000/svg"
   xmlns:svg="http://www.w3.org/2000/svg">
  <defs
     id="defs1" />
  <sodipodi:namedview
     id="namedview1"
     pagecolor="#ffffff"
     bordercolor="#000000"
     borderopacity="0.25"
     inkscape:showpageshadow="2"
     inkscape:pageopacity="0.0"
     inkscape:pagecheckerboard="0"
     inkscape:deskcolor="#d1d1d1">
    <inkscape:page
       x="0"
       y="0"
       inkscape:label="1"
       id="page1"
       width="491.51999"
       height="372.42667"
       margin="0"
       bleed="0" />
  </sodipodi:namedview>
  <g
     id="g1"
     inkscape:groupmode="layer"
     inkscape:label="1">
    <g
       id="group-R5">
      <path
         id="path2"
         d="m 961.941,2061.78 c -31.808,0 -57.601,-25.79 -57.601,-57.6 0,-31.81 25.793,-57.6 57.601,-57.6 H 2264.29 c 31.82,0 57.6,25.79 57.6,57.6 0,31.81 -25.78,57.6 -57.6,57.6 H 961.941"
         style="fill:#100f0d;fill-opacity:1;fill-rule:nonzero;stroke:none"
         transform="matrix(0.13333333,0,0,-0.13333333,0,372.42667)" />
      <path
         id="path3"
         d="m 225.641,2282.84 v -620.75 l 378.879,-359.12 396.14,373.67 c 10.53,11.37 25.58,18.49 42.28,18.49 h 1306.27 c 31.81,0 57.6,-25.79 57.6,-57.6 V 1052.24 794.23 763.82 h 30.4 821.3 30.39 v 30.41 258.01 585.29 256.64 388.67 c 0,8.29 -3.44,15.89 -8.97,21.42 -5.53,5.54 -13.13,8.97 -21.42,8.97 H 256.035 c -8.297,0 -15.89,-3.43 -21.422,-8.97 -5.535,-5.53 -8.972,-13.13 -8.972,-21.42 z M 110.438,1637.53 v 645.31 c 0,40.1 16.363,76.51 42.726,102.87 26.356,26.36 62.774,42.72 102.871,42.72 H 3258.51 c 40.1,0 76.51,-16.36 102.87,-42.72 26.36,-26.36 42.73,-62.77 42.73,-102.87 v -388.67 -256.64 -585.29 -258.01 -88 c 0,-31.808 -25.79,-57.601 -57.6,-57.601 h -88 -821.3 -88 c -31.81,0 -57.59,25.793 -57.59,57.601 v 88 258.01 527.69 H 1065.63 l -421.767,-397.84 0.09,-0.1 c -23.137,-21.83 -59.598,-20.76 -81.426,2.38 l -0.578,0.63 -433.433,410.83 -0.102,-0.11 c -11.945,11.32 -17.969,26.55 -17.976,41.81 v 0"
         style="fill:#100f0d;fill-opacity:1;fill-rule:nonzero;stroke:none"
         transform="matrix(0.13333333,0,0,-0.13333333,0,372.42667)" />
      <path
         id="path4"
         d="m 3458.42,2068.46 c -14.84,14.84 -33.54,25.79 -54.41,31.15 v -504.43 c 20.87,5.35 39.57,16.31 54.41,31.14 21.49,21.49 34.83,51.08 34.83,83.57 v 275 c 0,32.49 -13.34,62.08 -34.83,83.57 z m -112.01,150.02 h 28.44 c 64.3,0 122.71,-26.26 165.02,-68.57 42.31,-42.3 68.57,-100.72 68.57,-165.02 v -275 c 0,-64.29 -26.26,-122.71 -68.57,-165.02 -42.31,-42.3 -100.72,-68.57 -165.02,-68.57 h -28.44 c -31.81,0 -57.6,25.79 -57.6,57.6 v 626.98 c 0,31.81 25.79,57.6 57.6,57.6 v 0"
         style="fill:#100f0d;fill-opacity:1;fill-rule:nonzero;stroke:none"
         transform="matrix(0.13333333,0,0,-0.13333333,0,372.42667)" />
      <path
         id="path5"
         d="m 638.785,2677.99 h -68.707 v -249.56 h 68.707 z m -126.308,115.2 h 183.91 c 31.812,0 57.597,-25.79 57.597,-57.6 v -364.76 c 0,-31.81 -25.785,-57.6 -57.597,-57.6 h -183.91 c -31.809,0 -57.598,25.79 -57.598,57.6 v 364.76 c 0,31.81 25.789,57.6 57.598,57.6 v 0"
         style="fill:#100f0d;fill-opacity:1;fill-rule:nonzero;stroke:none"
         transform="matrix(0.13333333,0,0,-0.13333333,0,372.42667)" />
      <path
         id="path6"
         d="m 546.832,1004.94 c 0,-31.811 25.789,-57.6 57.602,-57.6 31.812,0 57.597,25.789 57.597,57.6 v 218.95 c 0,31.81 -25.785,57.6 -57.597,57.6 -31.813,0 -57.602,-25.79 -57.602,-57.6 v -218.95"
         style="fill:#100f0d;fill-opacity:1;fill-rule:nonzero;stroke:none"
         transform="matrix(0.13333333,0,0,-0.13333333,0,372.42667)" />
      <path
         id="path7"
         d="M 3571.21,648.629 H 115.199 V 115.191 H 3571.21 Z M 57.6016,763.82 H 3628.8 c 31.81,0 57.6,-25.789 57.6,-57.59 V 57.5898 C 3686.4,25.7891 3660.61,0 3628.8,0 H 57.6016 C 25.7891,0 0,25.7891 0,57.5898 V 706.23 c 0,31.801 25.7891,57.59 57.6016,57.59 v 0"
         style="fill:#100f0d;fill-opacity:1;fill-rule:nonzero;stroke:none"
         transform="matrix(0.13333333,0,0,-0.13333333,0,372.42667)" />
      <path
         id="path8"
         d="m 2928.47,1928 c -20.62,20.63 -49.13,33.39 -80.61,33.39 -31.49,0 -59.98,-12.76 -80.61,-33.39 -20.62,-20.62 -33.39,-49.12 -33.39,-80.61 0,-31.48 12.77,-59.98 33.39,-80.61 20.63,-20.62 49.12,-33.38 80.61,-33.38 31.48,0 59.99,12.76 80.61,33.38 20.62,20.62 33.38,49.13 33.38,80.61 0,31.49 -12.76,59.99 -33.38,80.61 z m -80.61,148.59 c 63.28,0 120.58,-25.66 162.06,-67.14 41.47,-41.47 67.14,-98.78 67.14,-162.06 0,-63.28 -25.67,-120.59 -67.14,-162.06 -41.48,-41.48 -98.78,-67.13 -162.06,-67.13 -63.28,0 -120.59,25.66 -162.06,67.13 -41.48,41.48 -67.13,98.78 -67.13,162.06 0,63.28 25.65,120.59 67.13,162.06 41.47,41.48 98.78,67.14 162.06,67.14 v 0"
         style="fill:#100f0d;fill-opacity:1;fill-rule:nonzero;stroke:none"
         transform="matrix(0.13333333,0,0,-0.13333333,0,372.42667)" />
      <path
         id="path9"
         d="m 2951.25,1264.15 h -206.79 c -8.29,0 -15.89,-3.44 -21.42,-8.98 -5.54,-5.52 -8.97,-13.11 -8.97,-21.41 v -206.8 c 0,-8.29 3.43,-15.89 8.97,-21.42 5.53,-5.53 13.13,-8.97 21.42,-8.97 h 206.79 c 8.31,0 15.89,3.44 21.43,8.97 5.54,5.53 8.98,13.13 8.98,21.42 v 206.8 c 0,8.3 -3.44,15.89 -8.98,21.41 -5.54,5.54 -13.12,8.98 -21.43,8.98 z m -206.79,115.2 h 206.79 c 40.1,0 76.52,-16.37 102.88,-42.72 26.35,-26.36 42.72,-62.78 42.72,-102.87 v -206.8 c 0,-40.101 -16.37,-76.511 -42.72,-102.87 -26.36,-26.36 -62.78,-42.731 -102.88,-42.731 h -206.79 c -40.1,0 -76.52,16.371 -102.87,42.731 -26.36,26.359 -42.73,62.769 -42.73,102.87 v 206.8 c 0,40.09 16.37,76.51 42.73,102.87 26.35,26.35 62.77,42.72 102.87,42.72 v 0"
         style="fill:#100f0d;fill-opacity:1;fill-rule:nonzero;stroke:none"
         transform="matrix(0.13333333,0,0,-0.13333333,0,372.42667)" />
      <path
         id="path10"
         d="m 388.199,439.512 c -31.808,0 -57.597,-25.793 -57.597,-57.602 0,-31.808 25.789,-57.601 57.597,-57.601 H 3298.2 c 31.8,0 57.6,25.793 57.6,57.601 0,31.809 -25.8,57.602 -57.6,57.602 H 388.199"
         style="fill:#100f0d;fill-opacity:1;fill-rule:nonzero;stroke:none"
         transform="matrix(0.13333333,0,0,-0.13333333,0,372.42667)" />
    </g>
  </g>
</svg>
